<?xml version="1.0" standalone="no"?>
<!DOCTYPE svg PUBLIC "-//W3C//DTD SVG 20010904//EN"
 "http://www.w3.org/TR/2001/REC-SVG-20010904/DTD/svg10.dtd">
<svg version="1.0" xmlns="http://www.w3.org/2000/svg"
 width="256.000000pt" height="256.000000pt" viewBox="0 0 256.000000 256.000000"
 preserveAspectRatio="xMidYMid meet">

<g transform="translate(0.000000,256.000000) scale(0.100000,-0.100000)"
fill="#000000" stroke="none">
<path d="M220 2405 c0 -11 402 -655 565 -906 47 -72 83 -134 80 -139 -3 -5
-55 -48 -115 -96 -61 -48 -110 -91 -110 -96 0 -13 51 -78 60 -78 4 0 58 40
120 90 l112 90 140 -208 c77 -114 142 -212 145 -218 2 -6 -31 -57 -73 -113
-62 -82 -79 -100 -89 -89 -6 7 -40 60 -75 118 -35 58 -64 106 -66 108 -1 2
-23 -10 -48 -25 l-46 -29 80 -131 c44 -72 80 -135 80 -140 0 -16 -85 -91 -130
-115 -27 -13 -63 -23 -89 -23 -39 0 -47 5 -82 44 -21 24 -44 61 -51 83 -12 40
-12 40 -52 33 -56 -8 -62 -17 -46 -66 24 -72 79 -140 140 -172 47 -25 63 -28
111 -24 65 6 144 42 212 99 27 22 51 37 55 33 4 -3 57 -88 118 -188 61 -100
115 -182 120 -184 5 -2 63 80 128 182 66 102 121 185 124 185 3 0 25 -18 49
-41 121 -112 271 -117 362 -14 36 42 77 111 86 145 5 22 1 27 -40 41 l-45 17
-19 -43 c-10 -23 -35 -61 -56 -83 -48 -54 -91 -63 -151 -34 -47 23 -124 88
-124 105 0 5 40 72 90 149 50 76 90 140 90 143 0 11 -80 56 -89 51 -5 -3 -44
-60 -86 -126 -43 -66 -81 -120 -85 -120 -5 0 -45 49 -89 109 l-81 109 94 136
c51 74 118 173 147 220 30 47 57 85 61 86 3 0 61 -43 129 -95 68 -52 126 -95
129 -95 4 0 21 18 38 39 l32 40 -135 104 -134 105 41 63 c117 181 588 953 588
964 0 3 -477 5 -1060 5 -583 0 -1060 -2 -1060 -5z m1815 -114 c-9 -7 -701
-559 -731 -582 -7 -6 -150 99 -380 277 -203 157 -376 292 -384 300 -12 12 86
14 745 14 424 0 755 -4 750 -9z m-1140 -420 c165 -128 301 -236 303 -240 2 -6
-198 -172 -234 -194 -9 -5 -57 63 -161 225 -196 306 -333 525 -333 533 0 4 28
-16 63 -43 34 -27 197 -154 362 -281z m1184 297 c-24 -44 -233 -385 -341 -556
l-110 -172 -61 48 c-34 27 -87 68 -117 92 -30 23 -55 46 -55 51 0 8 682 559
692 559 2 0 -2 -10 -8 -22z m-637 -720 l127 -99 -76 -117 c-41 -64 -104 -159
-140 -210 l-65 -93 -27 38 c-48 66 -232 344 -237 358 -7 17 265 237 280 227 6
-3 68 -50 138 -104z m-68 -813 l88 -115 -84 -130 c-45 -71 -85 -130 -88 -130
-3 0 -42 61 -88 136 l-83 136 37 47 c20 25 57 74 83 108 25 34 46 62 47 63 1
0 40 -52 88 -115z"/>
</g>
</svg>
